REM DIRINDEX 1\2,1\3,1\4,1\5
REM DIRNAME folder01,folder02,folder03,folder04,folder05
TITLE ""
FILE "1Q_t_1480-1489.mp3" MP3
  TRACK 01 AUDIO
    TITLE "3:cjc004_5346"
    INDEX 01 00:00:00
  TRACK 02 AUDIO
    TITLE "0:"
    INDEX 01 00:01:19
  TRACK 03 AUDIO
    TITLE "4:cjc004_5347"
    INDEX 01 00:01:48
  TRACK 04 AUDIO
    TITLE "0:"
    INDEX 01 00:02:63
  TRACK 05 AUDIO
    TITLE "5:cjc004_5348"
    INDEX 01 00:03:17
  TRACK 06 AUDIO
    TITLE "0:"
    INDEX 01 00:07:62
  TRACK 07 AUDIO
    TITLE "3:cjc004_5349"
    INDEX 01 00:08:40
  TRACK 08 AUDIO
    TITLE "0:"
    INDEX 01 00:09:55
  TRACK 09 AUDIO
    TITLE "4:cjc004_5350"
    INDEX 01 00:10:10
  TRACK 10 AUDIO
    TITLE "0:"
    INDEX 01 00:11:25
  TRACK 11 AUDIO
    TITLE "5:cjc004_5351"
    INDEX 01 00:11:46
  TRACK 12 AUDIO
    TITLE "0:"
    INDEX 01 00:17:00
  TRACK 13 AUDIO
    TITLE "3:cjc004_5352"
    INDEX 01 00:17:67
  TRACK 14 AUDIO
    TITLE "0:"
    INDEX 01 00:19:15
  TRACK 15 AUDIO
    TITLE "4:cjc004_5353"
    INDEX 01 00:19:44
  TRACK 16 AUDIO
    TITLE "0:"
    INDEX 01 00:20:61
  TRACK 17 AUDIO
    TITLE "5:cjc004_5354"
    INDEX 01 00:21:09
  TRACK 18 AUDIO
    TITLE "0:"
    INDEX 01 00:25:33
  TRACK 19 AUDIO
    TITLE "3:cjc004_5355"
    INDEX 01 00:26:17
  TRACK 20 AUDIO
    TITLE "0:"
    INDEX 01 00:27:45
  TRACK 21 AUDIO
    TITLE "4:cjc004_5356"
    INDEX 01 00:27:71
  TRACK 22 AUDIO
    TITLE "0:"
    INDEX 01 00:29:44
  TRACK 23 AUDIO
    TITLE "5:cjc004_5357"
    INDEX 01 00:29:72
  TRACK 24 AUDIO
    TITLE "0:"
    INDEX 01 00:34:67
  TRACK 25 AUDIO
    TITLE "3:cjc004_5358"
    INDEX 01 00:35:49
  TRACK 26 AUDIO
    TITLE "0:"
    INDEX 01 00:37:20
  TRACK 27 AUDIO
    TITLE "4:cjc004_5359"
    INDEX 01 00:37:46
  TRACK 28 AUDIO
    TITLE "0:"
    INDEX 01 00:39:19
  TRACK 29 AUDIO
    TITLE "5:cjc004_5360"
    INDEX 01 00:39:49
  TRACK 30 AUDIO
    TITLE "0:"
    INDEX 01 00:44:24
  TRACK 31 AUDIO
    TITLE "3:cjc004_5361"
    INDEX 01 00:45:10
  TRACK 32 AUDIO
    TITLE "0:"
    INDEX 01 00:46:19
  TRACK 33 AUDIO
    TITLE "4:cjc004_5362"
    INDEX 01 00:46:47
  TRACK 34 AUDIO
    TITLE "0:"
    INDEX 01 00:48:10
  TRACK 35 AUDIO
    TITLE "5:cjc004_5363"
    INDEX 01 00:48:38
  TRACK 36 AUDIO
    TITLE "0:"
    INDEX 01 00:53:13
  TRACK 37 AUDIO
    TITLE "3:cjc004_5364"
    INDEX 01 00:53:64
  TRACK 38 AUDIO
    TITLE "0:"
    INDEX 01 00:55:10
  TRACK 39 AUDIO
    TITLE "4:cjc004_5365"
    INDEX 01 00:55:36
  TRACK 40 AUDIO
    TITLE "0:"
    INDEX 01 00:56:43
  TRACK 41 AUDIO
    TITLE "5:cjc004_5366"
    INDEX 01 00:56:74
  TRACK 42 AUDIO
    TITLE "0:"
    INDEX 01 01:00:39
  TRACK 43 AUDIO
    TITLE "3:cjc004_5367"
    INDEX 01 01:01:17
  TRACK 44 AUDIO
    TITLE "0:"
    INDEX 01 01:02:40
  TRACK 45 AUDIO
    TITLE "4:cjc004_5368"
    INDEX 01 01:02:69
  TRACK 46 AUDIO
    TITLE "0:"
    INDEX 01 01:04:25
  TRACK 47 AUDIO
    TITLE "5:cjc004_5369"
    INDEX 01 01:04:50
  TRACK 48 AUDIO
    TITLE "0:"
    INDEX 01 01:09:18
  TRACK 49 AUDIO
    TITLE "3:cjc004_5370"
    INDEX 01 01:09:73
  TRACK 50 AUDIO
    TITLE "0:"
    INDEX 01 01:11:02
  TRACK 51 AUDIO
    TITLE "4:cjc004_5371"
    INDEX 01 01:11:31
  TRACK 52 AUDIO
    TITLE "0:"
    INDEX 01 01:12:58
  TRACK 53 AUDIO
    TITLE "5:cjc004_5372"
    INDEX 01 01:13:06
  TRACK 54 AUDIO
    TITLE "0:"
    INDEX 01 01:18:00
  TRACK 55 AUDIO
    TITLE "3:cjc004_5373"
    INDEX 01 01:18:56
  TRACK 56 AUDIO
    TITLE "0:"
    INDEX 01 01:19:64
  TRACK 57 AUDIO
    TITLE "4:cjc004_5374"
    INDEX 01 01:20:20
  TRACK 58 AUDIO
    TITLE "0:"
    INDEX 01 01:21:43
  TRACK 59 AUDIO
    TITLE "5:cjc004_5375"
    INDEX 01 01:21:70
  TRACK 60 AUDIO
    TITLE "0:"
    INDEX 01 01:25:45
